# xmcd CD database file
# Copyright (C) 1995-1998 Ti Kan
#
# Track frame offsets:
#	150
#	13470
#	25877
#	37410
#	53855
#	64985
#	79172
#	90497
#	103507
#	116115
#	128375
#	144800
#	158567
#	172530
#	186877
#	197737
#
# Disc length: 2853 seconds
#
# Revision: 1
# Processed by: cddbd v1.4PL0 Copyright (c) Steve Scherf et al.
# Submitted via: CDex 1.40Beta3
#
DISCID=cf0b2310
DTITLE=Charlie Rich - Behind Closed Doors
DYEAR=1991
DGENRE=Country
TTITLE0=Behind Closed Doors
TTITLE1=The Most Beautiful Girl
TTITLE2=Daddy Dont You Walk So Fast
TTITLE3=My Elusive Dreams
TTITLE4=I Love My Friend
TTITLE5=A Sunday Kind Of Woman
TTITLE6=Papa Was a Good Man
TTITLE7=Spanish Eyes
TTITLE8=A Very Special Love Song
TTITLE9=Rollin With The FLow
TTITLE10=Life Has Its Little Up And Downs
TTITLE11=Every Time You Touch Me
TTITLE12=Since I Fell For You
TTITLE13=On My Knees
TTITLE14=Somebody Wrote That Song For Me
TTITLE15=Thats The Way A Cowboy Rocks And Rolls
EXTD=YEAR: 1991 ID3G:   2
EXTT0=
EXTT1=
EXTT2=
EXTT3=
EXTT4=
EXTT5=
EXTT6=
EXTT7=
EXTT8=
EXTT9=
EXTT10=
EXTT11=
EXTT12=
EXTT13=
EXTT14=
EXTT15=
PLAYORDER=
